<svg xmlns="http://www.w3.org/2000/svg" xmlns:xlink="http://www.w3.org/1999/xlink" width="500" zoomAndPan="magnify" viewBox="0 0 375 374.999991" height="500" preserveAspectRatio="xMidYMid meet" version="1.0"><defs><clipPath id="57e75da069"><path d="M 330 212 L 342.390625 212 L 342.390625 237 L 330 237 Z M 330 212 " clip-rule="nonzero"/></clipPath><clipPath id="cbd21e7ec0"><path d="M 331 187 L 342.390625 187 L 342.390625 213 L 331 213 Z M 331 187 " clip-rule="nonzero"/></clipPath><clipPath id="aaea34e3d3"><path d="M 330 163 L 342.390625 163 L 342.390625 188 L 330 188 Z M 330 163 " clip-rule="nonzero"/></clipPath><clipPath id="d2cc7ef42d"><path d="M 314 154.925781 L 337 154.925781 L 337 250.175781 L 314 250.175781 Z M 314 154.925781 " clip-rule="nonzero"/></clipPath><clipPath id="171259fec7"><path d="M 266 154.925781 L 330 154.925781 L 330 250.175781 L 266 250.175781 Z M 266 154.925781 " clip-rule="nonzero"/></clipPath><clipPath id="6697bc9b55"><path d="M 259 239 L 272 239 L 272 250.175781 L 259 250.175781 Z M 259 239 " clip-rule="nonzero"/></clipPath><clipPath id="d843402120"><path d="M 259 154.925781 L 272 154.925781 L 272 167 L 259 167 Z M 259 154.925781 " clip-rule="nonzero"/></clipPath><clipPath id="325fcb4da6"><path d="M 254.640625 233 L 277 233 L 277 243 L 254.640625 243 Z M 254.640625 233 " clip-rule="nonzero"/></clipPath><clipPath id="28fa41d3aa"><path d="M 254.640625 209 L 277 209 L 277 219 L 254.640625 219 Z M 254.640625 209 " clip-rule="nonzero"/></clipPath><clipPath id="daeb204995"><path d="M 254.640625 186 L 277 186 L 277 196 L 254.640625 196 Z M 254.640625 186 " clip-rule="nonzero"/></clipPath><clipPath id="c930534df6"><path d="M 254.640625 162 L 277 162 L 277 172 L 254.640625 172 Z M 254.640625 162 " clip-rule="nonzero"/></clipPath><clipPath id="2e6a81724e"><path d="M 259 249 L 272 249 L 272 250.175781 L 259 250.175781 Z M 259 249 " clip-rule="nonzero"/></clipPath><clipPath id="cda24e45ad"><path d="M 271 190 L 330 190 L 330 250.175781 L 271 250.175781 Z M 271 190 " clip-rule="nonzero"/></clipPath><clipPath id="285a02c0be"><path d="M 321 154.925781 L 337 154.925781 L 337 250.175781 L 321 250.175781 Z M 321 154.925781 " clip-rule="nonzero"/></clipPath></defs><rect x="-37.5" width="450" fill="#ffffff" y="-37.499999" height="449.999989" fill-opacity="1"/><rect x="-37.5" width="450" fill="#0d5ea6" y="-37.499999" height="449.999989" fill-opacity="1"/><g clip-path="url(#57e75da069)"><path fill="#e15c63" d="M 342.359375 215.53125 L 342.359375 233.722656 L 336.003906 236.847656 C 329.167969 228.535156 329.304688 220.390625 336.003906 212.40625 Z M 342.359375 215.53125 " fill-opacity="1" fill-rule="nonzero"/></g><g clip-path="url(#cbd21e7ec0)"><path fill="#6fceae" d="M 342.359375 191.09375 L 342.359375 209.28125 L 336.003906 212.40625 C 330.433594 204.261719 330.433594 196.113281 336.003906 187.96875 Z M 342.359375 191.09375 " fill-opacity="1" fill-rule="nonzero"/></g><g clip-path="url(#aaea34e3d3)"><path fill="#ffc05a" d="M 342.359375 166.652344 L 342.359375 184.839844 L 336.003906 187.96875 C 329.589844 178.859375 328.890625 170.609375 336.003906 163.527344 Z M 342.359375 166.652344 " fill-opacity="1" fill-rule="nonzero"/></g><g clip-path="url(#d2cc7ef42d)"><path fill="#e7f2f1" d="M 336.003906 236.847656 L 336.003906 250.175781 L 321.835938 250.175781 L 314.699219 225.570312 L 320.359375 215.9375 L 329.074219 154.925781 L 336.003906 154.925781 Z M 336.003906 236.847656 " fill-opacity="1" fill-rule="nonzero"/></g><g clip-path="url(#171259fec7)"><path fill="#1ea6bc" d="M 271.402344 154.925781 C 264.28125 186.675781 264.28125 218.425781 271.402344 250.175781 L 321.835938 250.175781 L 321.835938 226.742188 L 329.074219 220.300781 L 329.074219 154.925781 Z M 271.402344 154.925781 " fill-opacity="1" fill-rule="nonzero"/></g><g clip-path="url(#6697bc9b55)"><path fill="#ffc05a" d="M 271.402344 242.410156 L 271.402344 250.175781 L 259.515625 250.175781 L 259.515625 242.410156 C 263.476562 238.828125 267.441406 238.828125 271.402344 242.410156 Z M 271.402344 242.410156 " fill-opacity="1" fill-rule="nonzero"/></g><path fill="#ffc05a" d="M 271.402344 218.84375 L 271.402344 233.394531 C 267.4375 236.828125 263.476562 236.828125 259.515625 233.394531 L 259.515625 218.84375 C 262.390625 214.285156 266.195312 213.621094 271.402344 218.84375 Z M 271.402344 218.84375 " fill-opacity="1" fill-rule="nonzero"/><path fill="#ffc05a" d="M 271.402344 195.277344 L 271.402344 209.828125 C 266.835938 216.574219 262.804688 217.328125 259.515625 209.828125 L 259.515625 195.277344 C 263.476562 190.351562 267.441406 190.351562 271.402344 195.277344 Z M 271.402344 195.277344 " fill-opacity="1" fill-rule="nonzero"/><g clip-path="url(#d843402120)"><path fill="#ffc05a" d="M 271.402344 154.925781 L 271.402344 162.695312 C 266.671875 168.042969 262.707031 168.046875 259.515625 162.695312 L 259.515625 154.925781 Z M 271.402344 154.925781 " fill-opacity="1" fill-rule="nonzero"/></g><path fill="#ffc05a" d="M 271.402344 171.710938 L 271.402344 186.261719 C 267.4375 192.269531 263.476562 192.269531 259.515625 186.261719 L 259.515625 171.710938 C 263.476562 168.898438 267.4375 168.898438 271.402344 171.710938 Z M 271.402344 171.710938 " fill-opacity="1" fill-rule="nonzero"/><g clip-path="url(#325fcb4da6)"><path fill="#e7f2f1" d="M 271.726562 233.394531 C 274.222656 233.394531 276.246094 235.414062 276.246094 237.902344 C 276.246094 239.148438 275.738281 240.273438 274.921875 241.089844 C 274.101562 241.902344 272.976562 242.410156 271.726562 242.410156 L 259.191406 242.410156 C 256.695312 242.410156 254.671875 240.390625 254.671875 237.902344 C 254.671875 236.65625 255.175781 235.53125 255.996094 234.714844 C 256.8125 233.898438 257.945312 233.394531 259.191406 233.394531 Z M 271.726562 233.394531 " fill-opacity="1" fill-rule="nonzero"/></g><g clip-path="url(#28fa41d3aa)"><path fill="#e7f2f1" d="M 271.726562 209.828125 C 274.222656 209.828125 276.246094 211.847656 276.246094 214.335938 C 276.246094 215.578125 275.738281 216.707031 274.921875 217.523438 C 274.101562 218.335938 272.976562 218.84375 271.726562 218.84375 L 259.191406 218.84375 C 256.695312 218.84375 254.671875 216.824219 254.671875 214.335938 C 254.671875 213.089844 255.175781 211.964844 255.996094 211.148438 C 256.8125 210.332031 257.945312 209.828125 259.191406 209.828125 Z M 271.726562 209.828125 " fill-opacity="1" fill-rule="nonzero"/></g><g clip-path="url(#daeb204995)"><path fill="#e7f2f1" d="M 271.726562 186.261719 C 274.222656 186.261719 276.246094 188.28125 276.246094 190.769531 C 276.246094 192.011719 275.738281 193.140625 274.921875 193.957031 C 274.101562 194.769531 272.976562 195.277344 271.726562 195.277344 L 259.191406 195.277344 C 256.695312 195.277344 254.671875 193.257812 254.671875 190.769531 C 254.671875 189.523438 255.175781 188.398438 255.996094 187.582031 C 256.8125 186.765625 257.945312 186.261719 259.191406 186.261719 Z M 271.726562 186.261719 " fill-opacity="1" fill-rule="nonzero"/></g><path fill="#655f68" d="M 312.863281 212.160156 L 312.863281 221.339844 L 289.695312 221.339844 L 289.695312 212.160156 C 289.695312 207.476562 292.824219 203.257812 297.390625 200.9375 C 298.589844 201.171875 299.929688 201.257812 301.28125 201.257812 C 302.632812 201.257812 303.96875 201.171875 305.167969 200.9375 L 305.171875 200.9375 C 309.738281 203.257812 312.863281 207.476562 312.863281 212.160156 Z M 312.863281 212.160156 " fill-opacity="1" fill-rule="nonzero"/><path fill="#ffd7d2" d="M 308.691406 179.71875 C 310.199219 181.214844 310.625 186.328125 310.625 189.535156 C 310.625 192.738281 310.199219 197.851562 308.691406 199.347656 C 307.867188 200.167969 306.621094 200.660156 305.171875 200.9375 L 305.167969 200.9375 C 303.96875 201.171875 302.632812 201.257812 301.28125 201.257812 C 299.929688 201.257812 298.589844 201.171875 297.390625 200.9375 C 295.941406 200.660156 294.695312 200.167969 293.871094 199.347656 C 292.363281 197.851562 291.9375 192.738281 291.9375 189.535156 C 291.9375 186.328125 292.363281 181.214844 293.871094 179.71875 C 295.378906 178.222656 298.300781 177.808594 301.28125 177.808594 C 304.257812 177.808594 307.183594 178.222656 308.691406 179.71875 Z M 308.691406 179.71875 " fill-opacity="1" fill-rule="nonzero"/><g clip-path="url(#c930534df6)"><path fill="#e7f2f1" d="M 271.726562 162.695312 C 274.222656 162.695312 276.246094 164.714844 276.246094 167.203125 C 276.246094 168.445312 275.738281 169.574219 274.921875 170.390625 C 274.101562 171.203125 272.976562 171.710938 271.726562 171.710938 L 259.191406 171.710938 C 256.695312 171.710938 254.671875 169.691406 254.671875 167.203125 C 254.671875 165.957031 255.175781 164.832031 255.996094 164.015625 C 256.8125 163.199219 257.945312 162.695312 259.191406 162.695312 Z M 271.726562 162.695312 " fill-opacity="1" fill-rule="nonzero"/></g><g clip-path="url(#2e6a81724e)"><path fill="#f9b132" d="M 271.402344 249.09375 L 271.402344 250.175781 L 259.515625 250.175781 C 263.703125 250.117188 267.660156 249.742188 271.402344 249.09375 Z M 271.402344 249.09375 " fill-opacity="1" fill-rule="nonzero"/></g><g clip-path="url(#cda24e45ad)"><path fill="#1498b7" d="M 329.074219 190.835938 L 329.074219 220.300781 L 321.835938 226.742188 L 321.835938 250.175781 L 271.402344 250.175781 L 271.402344 249.09375 C 305.175781 243.230469 321.359375 214.902344 329.074219 190.835938 Z M 329.074219 190.835938 " fill-opacity="1" fill-rule="nonzero"/></g><g clip-path="url(#285a02c0be)"><path fill="#d6eae8" d="M 336.003906 236.847656 L 336.003906 250.175781 L 321.835938 250.175781 L 321.835938 226.742188 L 329.074219 220.300781 L 329.074219 190.835938 C 335.269531 171.507812 336.003906 154.925781 336.003906 154.925781 Z M 336.003906 236.847656 " fill-opacity="1" fill-rule="nonzero"/></g></svg>