<svg xmlns="http://www.w3.org/2000/svg" xmlns:xlink="http://www.w3.org/1999/xlink" width="500" zoomAndPan="magnify" viewBox="0 0 375 374.999991" height="500" preserveAspectRatio="xMidYMid meet" version="1.0"><defs><g/></defs><rect x="-37.5" width="450" fill="#ffffff" y="-37.499999" height="449.999989" fill-opacity="1"/><rect x="-37.5" width="450" fill="#0d5ea6" y="-37.499999" height="449.999989" fill-opacity="1"/><g fill="#ffffff" fill-opacity="1"><g transform="translate(66.13726, 317.999979)"><g><path d="M 76.8125 -190.015625 L 1.46875 -190.015625 L 1.46875 -257.265625 L 238.890625 -257.265625 L 238.890625 -190.015625 L 163.546875 -190.015625 L 163.546875 0 L 76.8125 0 Z M 76.8125 -190.015625 "/></g></g></g><g fill="#ffffff" fill-opacity="1"><g transform="translate(306.501444, 317.999979)"><g><path d="M 55.859375 3.671875 C 41.898438 3.671875 30.320312 -0.796875 21.125 -9.734375 C 11.9375 -18.679688 7.34375 -30.140625 7.34375 -44.109375 C 7.34375 -58.066406 11.9375 -69.394531 21.125 -78.09375 C 30.320312 -86.789062 41.898438 -91.140625 55.859375 -91.140625 C 69.828125 -91.140625 81.40625 -86.789062 90.59375 -78.09375 C 99.78125 -69.394531 104.375 -58.066406 104.375 -44.109375 C 104.375 -30.140625 99.78125 -18.679688 90.59375 -9.734375 C 81.40625 -0.796875 69.828125 3.671875 55.859375 3.671875 Z M 55.859375 3.671875 "/></g></g></g></svg>