<svg xmlns="http://www.w3.org/2000/svg" xmlns:xlink="http://www.w3.org/1999/xlink" width="1920" zoomAndPan="magnify" viewBox="0 0 1440 374.999991" height="500" preserveAspectRatio="xMidYMid meet" version="1.0"><defs><g/><clipPath id="b596791954"><path d="M 1098.039062 26.671875 L 1383 26.671875 L 1383 330.421875 L 1098.039062 330.421875 Z M 1098.039062 26.671875 " clip-rule="nonzero"/></clipPath></defs><g clip-path="url(#b596791954)"><path fill="#0d5ea6" d="M 1302.722656 28.511719 L 1293.886719 44.65625 L 1296.824219 46.261719 C 1296.964844 46.339844 1297.085938 46.4375 1297.183594 46.5625 C 1297.285156 46.6875 1297.355469 46.824219 1297.398438 46.980469 C 1297.445312 47.132812 1297.460938 47.285156 1297.441406 47.445312 C 1297.425781 47.601562 1297.378906 47.753906 1297.304688 47.890625 L 1297.273438 47.941406 C 1297.199219 48.078125 1297.097656 48.195312 1296.976562 48.292969 C 1296.855469 48.390625 1296.71875 48.460938 1296.566406 48.503906 C 1296.417969 48.550781 1296.265625 48.5625 1296.109375 48.550781 C 1295.953125 48.535156 1295.808594 48.492188 1295.667969 48.417969 L 1292.726562 46.8125 L 1288.917969 53.789062 L 1301.023438 60.402344 L 1311.464844 55.921875 C 1311.582031 55.859375 1311.707031 55.839844 1311.839844 55.863281 C 1311.96875 55.886719 1312.082031 55.949219 1312.171875 56.046875 C 1312.261719 56.144531 1312.3125 56.257812 1312.324219 56.390625 C 1312.335938 56.523438 1312.308594 56.648438 1312.234375 56.761719 L 1300.449219 78.324219 C 1300.3125 78.566406 1300.109375 78.664062 1299.835938 78.617188 C 1299.5625 78.574219 1299.398438 78.414062 1299.351562 78.140625 L 1297.476562 66.914062 L 1285.371094 60.296875 L 1281.558594 67.277344 L 1284.496094 68.882812 C 1284.632812 68.960938 1284.753906 69.058594 1284.851562 69.183594 C 1284.953125 69.308594 1285.023438 69.445312 1285.066406 69.597656 C 1285.113281 69.75 1285.125 69.90625 1285.109375 70.0625 C 1285.09375 70.21875 1285.046875 70.371094 1284.972656 70.507812 L 1284.949219 70.558594 C 1284.871094 70.695312 1284.769531 70.8125 1284.644531 70.910156 C 1284.519531 71.007812 1284.378906 71.078125 1284.226562 71.125 C 1284.074219 71.167969 1283.921875 71.179688 1283.761719 71.160156 C 1283.605469 71.144531 1283.457031 71.09375 1283.316406 71.019531 L 1280.382812 69.414062 L 1271.546875 85.554688 C 1271.414062 85.777344 1271.226562 85.933594 1270.984375 86.023438 C 1270.738281 86.113281 1270.496094 86.113281 1270.25 86.027344 C 1270.003906 85.941406 1269.816406 85.789062 1269.683594 85.566406 C 1269.546875 85.34375 1269.5 85.105469 1269.539062 84.847656 L 1272.933594 65.34375 L 1268.695312 63.027344 C 1268.558594 62.949219 1268.441406 62.851562 1268.34375 62.726562 C 1268.246094 62.605469 1268.175781 62.46875 1268.128906 62.320312 C 1268.085938 62.167969 1268.070312 62.015625 1268.085938 61.863281 C 1268.101562 61.707031 1268.144531 61.558594 1268.214844 61.417969 L 1268.242188 61.371094 C 1268.320312 61.234375 1268.421875 61.117188 1268.542969 61.019531 C 1268.664062 60.921875 1268.800781 60.851562 1268.949219 60.808594 C 1269.101562 60.761719 1269.253906 60.746094 1269.410156 60.761719 C 1269.566406 60.777344 1269.710938 60.820312 1269.851562 60.894531 L 1273.359375 62.808594 L 1274.800781 54.539062 L 1263.363281 48.285156 C 1262.933594 48.050781 1262.566406 47.742188 1262.257812 47.359375 C 1261.949219 46.976562 1261.726562 46.550781 1261.589844 46.082031 C 1261.453125 45.609375 1261.410156 45.128906 1261.460938 44.644531 C 1261.515625 44.15625 1261.660156 43.695312 1261.894531 43.265625 C 1262.128906 42.835938 1262.4375 42.464844 1262.820312 42.160156 C 1263.203125 41.851562 1263.628906 41.628906 1264.101562 41.492188 C 1264.570312 41.351562 1265.050781 41.308594 1265.539062 41.363281 C 1266.023438 41.417969 1266.484375 41.558594 1266.914062 41.796875 L 1278.347656 48.046875 L 1284.535156 42.363281 L 1281.023438 40.445312 C 1280.886719 40.371094 1280.765625 40.269531 1280.667969 40.144531 C 1280.566406 40.019531 1280.496094 39.882812 1280.449219 39.730469 C 1280.40625 39.578125 1280.390625 39.421875 1280.410156 39.265625 C 1280.425781 39.109375 1280.472656 38.960938 1280.546875 38.820312 L 1280.574219 38.765625 C 1280.652344 38.632812 1280.75 38.515625 1280.875 38.417969 C 1280.996094 38.320312 1281.132812 38.25 1281.28125 38.207031 C 1281.433594 38.160156 1281.585938 38.148438 1281.738281 38.160156 C 1281.894531 38.175781 1282.042969 38.222656 1282.179688 38.292969 L 1286.421875 40.609375 L 1301.007812 27.21875 C 1301.195312 27.019531 1301.425781 26.90625 1301.703125 26.882812 C 1301.976562 26.859375 1302.222656 26.933594 1302.441406 27.097656 C 1302.664062 27.265625 1302.800781 27.480469 1302.851562 27.753906 C 1302.90625 28.023438 1302.863281 28.277344 1302.722656 28.511719 Z M 1319.414062 67.203125 C 1319.046875 66.960938 1318.660156 66.753906 1318.253906 66.585938 C 1317.84375 66.417969 1317.425781 66.292969 1316.992188 66.207031 C 1316.558594 66.121094 1316.125 66.082031 1315.683594 66.082031 C 1315.242188 66.082031 1314.808594 66.125 1314.375 66.214844 C 1313.945312 66.300781 1313.523438 66.429688 1313.117188 66.597656 C 1312.710938 66.765625 1312.324219 66.972656 1311.957031 67.21875 C 1311.59375 67.464844 1311.253906 67.742188 1310.945312 68.054688 C 1310.632812 68.367188 1310.355469 68.707031 1310.113281 69.074219 C 1309.867188 69.441406 1309.660156 69.828125 1309.492188 70.234375 C 1309.324219 70.640625 1309.199219 71.0625 1309.113281 71.492188 C 1309.027344 71.925781 1308.984375 72.363281 1308.988281 72.800781 C 1308.988281 73.242188 1309.03125 73.679688 1309.117188 74.109375 C 1309.203125 74.542969 1309.332031 74.960938 1309.5 75.367188 C 1309.667969 75.777344 1309.878906 76.164062 1310.121094 76.527344 C 1310.367188 76.894531 1310.644531 77.234375 1310.957031 77.542969 C 1311.269531 77.855469 1311.609375 78.132812 1311.976562 78.378906 L 1312.046875 78.425781 C 1318 82.378906 1323.621094 86.757812 1328.917969 91.558594 L 1332.808594 95.234375 L 1336.511719 99.097656 L 1337.433594 100.070312 L 1338.308594 101.082031 L 1340.066406 103.089844 C 1340.648438 103.769531 1341.246094 104.429688 1341.8125 105.121094 L 1343.464844 107.230469 C 1352.40625 118.59375 1359.292969 131.089844 1364.125 144.71875 L 1365.839844 149.820312 L 1367.3125 155 C 1367.578125 155.855469 1367.769531 156.734375 1367.976562 157.605469 L 1368.585938 160.226562 C 1369.03125 161.972656 1369.328125 163.742188 1369.65625 165.507812 C 1370.957031 172.59375 1371.679688 179.742188 1371.820312 186.945312 C 1372.015625 201.320312 1370.074219 215.789062 1365.628906 229.519531 L 1364.828125 232.105469 L 1363.898438 234.644531 L 1362.964844 237.1875 L 1362.492188 238.457031 L 1361.964844 239.699219 L 1359.835938 244.679688 L 1357.453125 249.546875 C 1354.144531 256 1350.371094 262.167969 1346.136719 268.050781 C 1341.828125 273.898438 1337.101562 279.390625 1331.960938 284.519531 L 1328.027344 288.277344 L 1323.917969 291.835938 C 1323.246094 292.449219 1322.53125 293.007812 1321.8125 293.5625 L 1319.671875 295.234375 C 1318.949219 295.789062 1318.253906 296.375 1317.511719 296.898438 L 1315.289062 298.46875 C 1309.359375 302.683594 1303.121094 306.378906 1296.570312 309.546875 C 1290.003906 312.71875 1283.230469 315.359375 1276.253906 317.46875 C 1269.257812 319.589844 1262.132812 321.109375 1254.882812 322.027344 C 1247.625 322.980469 1240.34375 323.347656 1233.027344 323.136719 C 1225.699219 322.875 1218.4375 322.042969 1211.238281 320.640625 C 1209.453125 320.238281 1207.648438 319.9375 1205.875 319.488281 L 1200.578125 318.113281 C 1197.078125 317.042969 1193.5625 315.996094 1190.136719 314.660156 L 1187.558594 313.707031 L 1185.027344 312.628906 L 1182.503906 311.550781 L 1181.226562 311 L 1179.992188 310.398438 L 1175.046875 307.988281 L 1170.226562 305.324219 C 1163.851562 301.648438 1157.785156 297.511719 1152.03125 292.914062 C 1146.292969 288.257812 1140.96875 283.167969 1136.054688 277.648438 C 1131.144531 272.125 1126.710938 266.242188 1122.753906 260 C 1118.796875 253.757812 1115.371094 247.238281 1112.476562 240.4375 C 1109.578125 233.640625 1107.25 226.652344 1105.492188 219.472656 C 1103.691406 212.273438 1102.511719 204.972656 1101.953125 197.570312 C 1100.707031 182.640625 1101.921875 167.914062 1105.59375 153.390625 L 1106.296875 150.691406 C 1106.535156 149.792969 1106.746094 148.890625 1107.046875 148.007812 L 1108.710938 142.710938 C 1109.335938 140.960938 1109.992188 139.222656 1110.632812 137.492188 L 1111.113281 136.179688 L 1111.660156 134.894531 L 1112.757812 132.328125 L 1113.851562 129.761719 L 1115.058594 127.253906 L 1116.261719 124.742188 L 1116.878906 123.488281 L 1117.550781 122.285156 L 1120.253906 117.390625 L 1123.234375 112.589844 C 1126.246094 107.855469 1129.535156 103.320312 1133.105469 98.992188 C 1136.671875 94.660156 1140.492188 90.5625 1144.5625 86.703125 C 1148.636719 82.839844 1152.929688 79.242188 1157.441406 75.90625 C 1161.953125 72.574219 1166.652344 69.527344 1171.539062 66.769531 C 1166.582031 69.449219 1161.808594 72.425781 1157.214844 75.691406 C 1152.621094 78.957031 1148.246094 82.492188 1144.085938 86.296875 C 1139.925781 90.101562 1136.011719 94.144531 1132.347656 98.425781 C 1128.683594 102.710938 1125.296875 107.199219 1122.183594 111.898438 L 1119.117188 116.636719 L 1116.308594 121.53125 L 1115.601562 122.734375 L 1114.957031 123.992188 L 1113.671875 126.503906 L 1112.378906 129.054688 L 1111.222656 131.632812 L 1110.0625 134.214844 L 1109.488281 135.484375 L 1108.972656 136.800781 C 1108.292969 138.554688 1107.589844 140.304688 1106.929688 142.070312 L 1105.136719 147.433594 C 1104.820312 148.324219 1104.585938 149.238281 1104.335938 150.144531 L 1103.570312 152.871094 C 1099.554688 167.585938 1098.039062 182.554688 1099.019531 197.777344 C 1099.460938 205.355469 1100.53125 212.847656 1102.234375 220.246094 C 1108.824219 249.855469 1125.453125 277.203125 1148.84375 296.800781 C 1154.722656 301.691406 1160.9375 306.109375 1167.484375 310.054688 L 1172.449219 312.914062 L 1177.550781 315.53125 L 1178.824219 316.179688 L 1180.132812 316.769531 L 1182.746094 317.945312 L 1185.363281 319.117188 L 1188.03125 320.160156 C 1191.570312 321.621094 1195.21875 322.789062 1198.855469 323.96875 L 1204.386719 325.515625 C 1206.234375 326.015625 1208.113281 326.386719 1209.976562 326.828125 C 1217.488281 328.433594 1225.078125 329.445312 1232.746094 329.863281 C 1240.429688 330.230469 1248.09375 329.984375 1255.738281 329.125 C 1263.394531 328.296875 1270.929688 326.835938 1278.34375 324.742188 C 1285.769531 322.648438 1292.984375 319.988281 1299.988281 316.761719 C 1307.003906 313.523438 1313.699219 309.722656 1320.070312 305.355469 L 1322.480469 303.75 C 1323.285156 303.207031 1324.03125 302.597656 1324.808594 302.027344 L 1327.121094 300.285156 C 1327.894531 299.707031 1328.667969 299.128906 1329.398438 298.496094 L 1333.847656 294.785156 L 1338.109375 290.859375 C 1343.699219 285.492188 1348.851562 279.738281 1353.566406 273.585938 C 1358.207031 267.378906 1362.359375 260.859375 1366.015625 254.027344 L 1368.664062 248.851562 L 1371.042969 243.523438 L 1371.640625 242.199219 L 1372.167969 240.84375 L 1373.230469 238.132812 L 1374.277344 235.417969 L 1375.203125 232.65625 C 1380.25 217.964844 1382.65625 202.394531 1382.726562 186.839844 C 1382.71875 179.035156 1382.082031 171.28125 1380.816406 163.582031 C 1380.5 161.65625 1380.207031 159.730469 1379.765625 157.832031 L 1379.152344 154.972656 C 1378.949219 154.019531 1378.75 153.0625 1378.488281 152.125 L 1376.992188 146.472656 L 1375.230469 140.886719 C 1370.226562 125.929688 1362.960938 112.160156 1353.433594 99.585938 L 1351.664062 97.242188 C 1351.058594 96.472656 1350.414062 95.730469 1349.792969 94.976562 L 1347.910156 92.71875 L 1346.96875 91.59375 L 1345.972656 90.5 L 1341.984375 86.175781 L 1337.792969 82.0625 C 1332.070312 76.679688 1325.976562 71.753906 1319.511719 67.285156 Z M 1319.414062 67.203125 " fill-opacity="1" fill-rule="nonzero"/></g><g fill="#0d5ea6" fill-opacity="1"><g transform="translate(21.494147, 272.895244)"><g><path d="M 55.390625 -137 L 1.0625 -137 L 1.0625 -185.5 L 172.25 -185.5 L 172.25 -137 L 117.921875 -137 L 117.921875 0 L 55.390625 0 Z M 55.390625 -137 "/></g></g></g><g fill="#0d5ea6" fill-opacity="1"><g transform="translate(194.807256, 272.895244)"><g><path d="M 70.21875 -129.3125 C 80.820312 -141.507812 96.457031 -147.609375 117.125 -147.609375 L 117.125 -94.609375 C 112.351562 -95.316406 107.9375 -95.671875 103.875 -95.671875 C 83.382812 -95.671875 73.140625 -85.242188 73.140625 -64.390625 L 73.140625 0 L 13.25 0 L 13.25 -144.953125 L 70.21875 -144.953125 Z M 70.21875 -129.3125 "/></g></g></g><g fill="#0d5ea6" fill-opacity="1"><g transform="translate(315.649397, 272.895244)"><g><path d="M 78.171875 -147.609375 C 103.609375 -147.609375 123.039062 -141.910156 136.46875 -130.515625 C 149.894531 -119.117188 156.609375 -101.582031 156.609375 -77.90625 L 156.609375 0 L 100.96875 0 L 100.96875 -19.078125 C 94.070312 -4.585938 80.378906 2.65625 59.890625 2.65625 C 48.410156 2.65625 38.648438 0.664062 30.609375 -3.3125 C 22.566406 -7.289062 16.46875 -12.679688 12.3125 -19.484375 C 8.164062 -26.285156 6.09375 -33.925781 6.09375 -42.40625 C 6.09375 -56.707031 11.566406 -67.566406 22.515625 -74.984375 C 33.472656 -82.410156 50.082031 -86.125 72.34375 -86.125 L 96.453125 -86.125 C 94.515625 -97.425781 85.421875 -103.078125 69.171875 -103.078125 C 62.628906 -103.078125 56 -102.0625 49.28125 -100.03125 C 42.570312 -98 36.832031 -95.21875 32.0625 -91.6875 L 12.984375 -131.171875 C 21.285156 -136.296875 31.3125 -140.316406 43.0625 -143.234375 C 54.8125 -146.148438 66.515625 -147.609375 78.171875 -147.609375 Z M 77.90625 -33.390625 C 82.144531 -33.390625 85.941406 -34.535156 89.296875 -36.828125 C 92.660156 -39.128906 95.132812 -42.578125 96.71875 -47.171875 L 96.71875 -57.234375 L 81.890625 -57.234375 C 69.691406 -57.234375 63.59375 -53.171875 63.59375 -45.046875 C 63.59375 -41.691406 64.875 -38.910156 67.4375 -36.703125 C 70 -34.492188 73.488281 -33.390625 77.90625 -33.390625 Z M 77.90625 -33.390625 "/></g></g></g><g fill="#0d5ea6" fill-opacity="1"><g transform="translate(484.987484, 272.895244)"><g><path d="M 174.640625 -144.953125 L 116.328125 0 L 54.328125 0 L -3.96875 -144.953125 L 57.5 -144.953125 L 86.65625 -67.3125 L 117.921875 -144.953125 Z M 174.640625 -144.953125 "/></g></g></g><g fill="#0d5ea6" fill-opacity="1"><g transform="translate(655.650551, 272.895244)"><g><path d="M 167.484375 -72.609375 C 167.484375 -71.722656 167.21875 -67.039062 166.6875 -58.5625 L 65.984375 -58.5625 C 68.109375 -53.082031 71.640625 -48.882812 76.578125 -45.96875 C 81.523438 -43.0625 87.710938 -41.609375 95.140625 -41.609375 C 101.492188 -41.609375 106.832031 -42.398438 111.15625 -43.984375 C 115.488281 -45.578125 120.21875 -48.316406 125.34375 -52.203125 L 156.609375 -20.671875 C 142.484375 -5.117188 121.375 2.65625 93.28125 2.65625 C 75.789062 2.65625 60.421875 -0.566406 47.171875 -7.015625 C 33.921875 -13.460938 23.671875 -22.425781 16.421875 -33.90625 C 9.179688 -45.394531 5.5625 -58.296875 5.5625 -72.609375 C 5.5625 -87.097656 9.140625 -100.039062 16.296875 -111.4375 C 23.453125 -122.832031 33.253906 -131.707031 45.703125 -138.0625 C 58.160156 -144.425781 72.164062 -147.609375 87.71875 -147.609375 C 102.375 -147.609375 115.753906 -144.691406 127.859375 -138.859375 C 139.960938 -133.023438 149.59375 -124.453125 156.75 -113.140625 C 163.90625 -101.835938 167.484375 -88.328125 167.484375 -72.609375 Z M 88.25 -106.796875 C 82.0625 -106.796875 76.9375 -105.113281 72.875 -101.75 C 68.8125 -98.394531 66.160156 -93.628906 64.921875 -87.453125 L 111.5625 -87.453125 C 110.320312 -93.453125 107.671875 -98.175781 103.609375 -101.625 C 99.546875 -105.070312 94.425781 -106.796875 88.25 -106.796875 Z M 88.25 -106.796875 "/></g></g></g><g fill="#0d5ea6" fill-opacity="1"><g transform="translate(828.698683, 272.895244)"><g><path d="M 13.25 -196.625 L 73.140625 -196.625 L 73.140625 0 L 13.25 0 Z M 13.25 -196.625 "/></g></g></g><g fill="#0d5ea6" fill-opacity="1"><g transform="translate(915.090269, 272.895244)"><g><path d="M 69.953125 2.65625 C 57.585938 2.65625 45.398438 1.332031 33.390625 -1.3125 C 21.378906 -3.96875 11.660156 -7.414062 4.234375 -11.65625 L 20.671875 -51.140625 C 27.378906 -47.078125 35.328125 -43.894531 44.515625 -41.59375 C 53.703125 -39.300781 62.625 -38.15625 71.28125 -38.15625 C 78.175781 -38.15625 82.988281 -38.726562 85.71875 -39.875 C 88.457031 -41.03125 89.828125 -42.753906 89.828125 -45.046875 C 89.828125 -47.347656 88.101562 -48.9375 84.65625 -49.8125 C 81.21875 -50.695312 75.613281 -51.582031 67.84375 -52.46875 C 56 -53.882812 45.925781 -55.695312 37.625 -57.90625 C 29.320312 -60.113281 22.035156 -64.394531 15.765625 -70.75 C 9.492188 -77.113281 6.359375 -86.210938 6.359375 -98.046875 C 6.359375 -107.410156 9.179688 -115.800781 14.828125 -123.21875 C 20.484375 -130.644531 28.921875 -136.566406 40.140625 -140.984375 C 51.359375 -145.398438 64.832031 -147.609375 80.5625 -147.609375 C 91.507812 -147.609375 102.238281 -146.59375 112.75 -144.5625 C 123.269531 -142.53125 132.238281 -139.570312 139.65625 -135.6875 L 123.21875 -96.1875 C 110.5 -103.257812 96.546875 -106.796875 81.359375 -106.796875 C 68.285156 -106.796875 61.75 -104.5 61.75 -99.90625 C 61.75 -97.601562 63.515625 -95.96875 67.046875 -95 C 70.578125 -94.03125 76.140625 -93.101562 83.734375 -92.21875 C 95.578125 -90.800781 105.601562 -88.941406 113.8125 -86.640625 C 122.03125 -84.347656 129.273438 -80.019531 135.546875 -73.65625 C 141.816406 -67.300781 144.953125 -58.207031 144.953125 -46.375 C 144.953125 -37.363281 142.125 -29.144531 136.46875 -21.71875 C 130.820312 -14.300781 122.34375 -8.382812 111.03125 -3.96875 C 99.726562 0.445312 86.035156 2.65625 69.953125 2.65625 Z M 69.953125 2.65625 "/></g></g></g><g fill="#0d5ea6" fill-opacity="1"><g transform="translate(1064.818036, 272.895244)"><g><path d="M 40.28125 2.65625 C 30.207031 2.65625 21.859375 -0.566406 15.234375 -7.015625 C 8.609375 -13.460938 5.296875 -21.722656 5.296875 -31.796875 C 5.296875 -41.867188 8.609375 -50.039062 15.234375 -56.3125 C 21.859375 -62.582031 30.207031 -65.71875 40.28125 -65.71875 C 50.351562 -65.71875 58.703125 -62.582031 65.328125 -56.3125 C 71.953125 -50.039062 75.265625 -41.867188 75.265625 -31.796875 C 75.265625 -21.722656 71.953125 -13.460938 65.328125 -7.015625 C 58.703125 -0.566406 50.351562 2.65625 40.28125 2.65625 Z M 40.28125 2.65625 "/></g></g></g><g fill="#0d5ea6" fill-opacity="1"><g transform="translate(1145.391863, 272.895244)"><g/></g></g><g fill="#221f1f" fill-opacity="1"><g transform="translate(1061.958875, 180.254726)"><g><path d="M 72.125 -130.996094 C 71.90625 -131.179688 72.074219 -131.113281 72.074219 -131.113281 C 70.816406 -132.394531 67.78125 -133.886719 66.046875 -132.710938 C 64.730469 -131.859375 65.457031 -131.472656 65.175781 -130.507812 C 64.039062 -126.644531 62.398438 -122.984375 61.382812 -119.171875 C 58.703125 -109.160156 57.15625 -98.800781 55.558594 -88.558594 C 53.960938 -78.3125 52.71875 -68.222656 52.558594 -57.902344 C 52.492188 -53.519531 51.683594 -49.238281 51.445312 -44.921875 C 51.066406 -38.996094 51.140625 -32.992188 51.167969 -27.105469 C 51.066406 -27.339844 48.941406 -32.878906 48.691406 -32.492188 C 48.558594 -32.152344 48.488281 -31.980469 48.542969 -31.863281 C 47.648438 -34.566406 47.210938 -38.167969 46.453125 -41.210938 C 45.371094 -45.65625 43.929688 -49.949219 42.488281 -54.238281 C 42.164062 -55.640625 38.703125 -69.449219 37.234375 -76.398438 C 37.792969 -72.847656 38.792969 -67.945312 38.761719 -67.371094 C 37.417969 -73.386719 36.191406 -79.457031 35.722656 -85.714844 C 35.808594 -85.191406 36.015625 -84.71875 36.25 -84.820312 C 36.605469 -84.972656 36.265625 -89.320312 35.859375 -89.285156 L 35.542969 -88.726562 C 35.550781 -89.996094 36.445312 -90.523438 35.558594 -92.246094 C 34.722656 -93.847656 33.230469 -95.027344 31.46875 -95.527344 C 30.113281 -96.0625 27.878906 -96.355469 26.613281 -95.386719 C 25.464844 -94.46875 25.890625 -93.8125 25.675781 -93.015625 C 23.644531 -85.390625 20.871094 -76.886719 19.214844 -68.722656 C 18.617188 -66.21875 18.777344 -63.902344 18.230469 -61.277344 C 17.066406 -56.835938 16.238281 -52.265625 14.90625 -47.894531 C 13.671875 -43.289062 13.671875 -39.074219 12.675781 -34.570312 L 10.308594 -22.867188 C 9.050781 -31.59375 6.917969 -40.078125 5.019531 -48.664062 C 4.503906 -50.828125 -0.925781 -74.035156 -0.925781 -74.035156 C -1.042969 -73.984375 2.027344 -60.429688 2.234375 -58.972656 C 0.5625 -66.394531 -1.09375 -74.101562 -3.410156 -81.386719 C -3.460938 -81.503906 -2.605469 -79.207031 -2.539062 -79.375 C -1.949219 -79.632812 -3.863281 -84.699219 -4.285156 -84.375 C -4.351562 -84.207031 -4.417969 -84.039062 -4.367188 -83.917969 C -4.828125 -84.984375 -4.597656 -86.066406 -5.265625 -87.605469 C -6.457031 -90.035156 -7.839844 -92.246094 -9.875 -94.03125 C -11.472656 -95.445312 -13.476562 -96.824219 -15.640625 -96.308594 C -16.164062 -96.21875 -16.128906 -95.8125 -16.769531 -95.675781 C -17.359375 -95.417969 -17.683594 -95.839844 -18.273438 -95.585938 C -20.824219 -94.339844 -21.757812 -90.984375 -21.78125 -88.445312 C -22.003906 -85.398438 -19.851562 -76.222656 -16 -82.246094 C -15.746094 -81.652344 -13.640625 -75.824219 -13.605469 -75.417969 C -13.417969 -75.640625 -13.519531 -75.878906 -13.503906 -76.164062 C -13.109375 -74.929688 -12.769531 -73.816406 -12.542969 -72.648438 C -12.710938 -72.714844 -12.835938 -73.648438 -13.070312 -73.542969 C -14.136719 -73.082031 -10.738281 -62.335938 -10.175781 -61.035156 C -9.269531 -58.621094 -8.820312 -56.289062 -8.382812 -53.667969 C -8.160156 -52.5 -7.933594 -51.332031 -7.589844 -50.21875 C -7.660156 -50.050781 -6.597656 -47.277344 -6.550781 -48.140625 C -6.449219 -47.90625 -6.515625 -47.734375 -6.414062 -47.5 C -6.582031 -47.566406 -6.632812 -47.683594 -6.683594 -47.804688 C -6.75 -47.632812 -5.703125 -43.59375 -5.769531 -43.425781 C -5.488281 -41.160156 -5.546875 -39.027344 -5.265625 -36.761719 C -4.515625 -31.46875 -3.125 -26.3125 -2.253906 -21.070312 C -3.230469 -31.742188 -4.699219 -42.90625 -6.84375 -53.351562 C -8.636719 -61.703125 -10.097656 -70.898438 -12.941406 -79.078125 C -9.332031 -69.128906 -6.96875 -58.496094 -5.332031 -48.25 C -4.289062 -41.957031 -3.367188 -35.617188 -2.441406 -29.277344 C -1.46875 -22.816406 -1.660156 -16.132812 -0.515625 -9.609375 C -0.046875 -6.582031 0.285156 -4.195312 0.519531 -1.066406 C 0.753906 2.0625 1.324219 5.324219 5.050781 5.816406 C 8.890625 6.257812 14.140625 3.136719 14.140625 -1.074219 C 14.121094 -1.769531 13.980469 -2.410156 13.84375 -3.054688 C 13.421875 -6.945312 14.453125 -11.042969 14.894531 -14.886719 C 15.675781 -21.824219 16.578125 -28.816406 17.933594 -35.726562 C 19.207031 -43.160156 20.695312 -50.40625 21.679688 -57.855469 C 22.15625 -61.292969 23.613281 -64.734375 24.378906 -68.15625 L 26.359375 -75.894531 C 26.378906 -75.203125 27.777344 -68.085938 27.660156 -68.03125 C 27.777344 -68.085938 27.726562 -68.203125 27.84375 -68.253906 C 27.917969 -67.441406 28.15625 -66.5625 28.347656 -65.800781 C 28.109375 -65.699219 28.15625 -66.5625 27.921875 -66.460938 C 26.28125 -66.03125 29.640625 -55.691406 29.949219 -54.980469 C 30.535156 -52.988281 30.761719 -50.839844 31.226562 -48.792969 C 31.539062 -47.101562 32.339844 -45.90625 32.800781 -44.839844 C 32.582031 -45.027344 33.246094 -43.488281 33.28125 -43.082031 C 33.726562 -41.730469 33.578125 -41.105469 33.738281 -39.769531 C 33.96875 -36.640625 35.117188 -33.347656 36.179688 -30.574219 C 38.316406 -25.324219 40.1875 -19.390625 43.097656 -14.617188 C 45.316406 -10.800781 50.703125 -9.066406 54.6875 -11.214844 C 56.832031 -12.425781 56.894531 -13.574219 56.546875 -15.671875 C 56.183594 -17.480469 56.292969 -19.496094 56.351562 -21.625 C 56.589844 -29.175781 56.777344 -36.839844 57.472656 -44.304688 C 57.910156 -49.128906 57.398438 -53.542969 57.9375 -58.128906 C 58.621094 -64.324219 59.1875 -70.46875 60.210938 -76.53125 C 60.65625 -79.390625 60.746094 -82.097656 60.71875 -84.753906 C 60.789062 -88.15625 62.195312 -91.714844 62.839844 -95.085938 C 63.617188 -98.792969 64.160156 -102.398438 65.175781 -106.210938 C 66.109375 -109.566406 67.515625 -113.125 67.992188 -116.5625 C 68.1875 -118.050781 67.714844 -117.847656 68.320312 -119.371094 C 68.71875 -120.386719 69.425781 -121.675781 70.0625 -122.796875 C 71.289062 -125.152344 74.40625 -128.332031 72.125 -130.996094 Z M 39.476562 -62.484375 C 39.511719 -62.078125 39.507812 -63.058594 39.503906 -64.039062 C 39.453125 -64.15625 39.519531 -64.328125 39.46875 -64.445312 C 39.832031 -62.636719 40.039062 -61.183594 40.417969 -59.660156 C 40.0625 -60.488281 39.636719 -61.148438 39.476562 -62.484375 Z M 36.8125 -80.289062 C 36.695312 -80.238281 36.714844 -79.542969 36.988281 -78.257812 C 36.765625 -79.425781 36.8125 -80.289062 36.8125 -80.289062 Z M 36.8125 -80.289062 "/></g></g></g><g fill="#221f1f" fill-opacity="1"><g transform="translate(1141.989424, 145.550642)"><g><path d="M 18.363281 -42.511719 C 17.460938 -43.945312 16.007812 -42.757812 15.4375 -41.804688 C 14.683594 -40.636719 12.152344 -30.269531 12.882812 -29.882812 C 13.238281 -30.039062 13.472656 -30.140625 13.609375 -30.480469 C 12.824219 -27.753906 10.726562 -24.171875 9.25 -21.425781 C 8.410156 -19.796875 6.5 -15.457031 4.195312 -15.582031 C -0.695312 -15.851562 1.3125 -33.574219 0.90625 -33.539062 C 0.5 -33.503906 0.414062 -25.601562 0.492188 -23.808594 C 0.113281 -28.5625 0.210938 -33.519531 0.871094 -38.15625 C 0.90625 -37.75 0.804688 -37.007812 1.042969 -37.109375 C 1.332031 -37.09375 2.027344 -40.34375 1.570312 -40.425781 C 1.453125 -40.375 1.214844 -40.273438 1.148438 -40.105469 C 1.347656 -40.613281 1.890625 -40.988281 1.582031 -41.695312 C 1.070312 -42.878906 -2.164062 -42.882812 -3.261719 -42.828125 C -5.917969 -42.796875 -8.265625 -42.058594 -9.527344 -40.109375 C -11.277344 -37.664062 -10.519531 -34.625 -10.390625 -31.730469 C -10.316406 -30.917969 -8.925781 -21.550781 -8.398438 -21.636719 C -8.214844 -21.859375 -8.265625 -21.976562 -8.25 -22.265625 L -7.683594 -19.984375 C -7.800781 -19.933594 -7.820312 -20.625 -8.058594 -20.523438 C -9.003906 -20.113281 -6.921875 -15.960938 -6.546875 -15.417969 C -5.152344 -13.496094 -2.828125 -12.675781 -0.757812 -11.46875 C 0.410156 -10.710938 1.582031 -9.957031 2.953125 -9.707031 C 4.832031 -9.257812 3.425781 -9.914062 4.578125 -9.851562 L 4.339844 -9.746094 C 4.53125 -8.988281 9.535156 -9.753906 10.429688 -10.28125 C 14.15625 -13.019531 14.90625 -19.386719 15.886719 -23.601562 C 16.902344 -27.414062 17.566406 -31.070312 18.292969 -34.898438 C 18.808594 -36.949219 19.808594 -40.472656 18.363281 -42.511719 Z M -8.785156 -48.4375 C -8.394531 -48.183594 -8.542969 -47.558594 -7.511719 -47.445312 C -6.53125 -47.449219 -6.261719 -48.125 -5.65625 -48.671875 C -4.492188 -49.875 -4.097656 -51.875 -3.441406 -53.28125 C -3.191406 -53.671875 -3.847656 -53.246094 -3.847656 -53.246094 C -2.925781 -55.332031 -3.507812 -53.113281 -2.449219 -54.554688 C -1.441406 -56.117188 -1.871094 -57.753906 -1.253906 -59.566406 C -2.414062 -58.363281 -3.121094 -57.074219 -3.554688 -55.480469 C -4.070312 -53.429688 -4.589844 -52.363281 -5.53125 -50.972656 C -4.574219 -52.652344 -4.324219 -54.023438 -3.964844 -56.425781 C -3.761719 -56.933594 -3.511719 -57.324219 -3.140625 -57.765625 C -3.648438 -57.96875 -3.800781 -58.320312 -3.484375 -58.882812 C -3.382812 -59.625 -2.777344 -60.171875 -2.679688 -60.914062 C -2.449219 -62 -3.027344 -63.011719 -2.675781 -64.148438 C -2.289062 -64.875 -1.617188 -65.589844 -1.347656 -66.269531 C -0.695312 -67.675781 -0.28125 -69.960938 -1.421875 -71.292969 C -2.507812 -72.507812 -4.460938 -73.765625 -6.121094 -74.03125 C -8.015625 -74.191406 -10.296875 -73.625 -11.644531 -72.195312 C -11.949219 -71.925781 -13.210938 -70.953125 -12.535156 -70.6875 C -12.3125 -70.5 -12.195312 -70.554688 -11.960938 -70.65625 C -12.664062 -69.367188 -13.824219 -67.179688 -10.929688 -67.308594 C -11.0625 -66.972656 -10.367188 -66.007812 -10.316406 -65.890625 C -10.074219 -65.011719 -9.832031 -59.921875 -9.972656 -57.332031 L -9.476562 -60.074219 C -9.535156 -57.941406 -9.765625 -55.878906 -10.214844 -53.996094 C -10.171875 -55.839844 -10.820312 -53.453125 -10.667969 -53.097656 C -12.222656 -53.125 -10.277344 -49.613281 -10.007812 -49.3125 C -9.957031 -49.191406 -8.785156 -48.4375 -8.785156 -48.4375 Z M 1.167969 -19.328125 L 1.222656 -19.207031 L 1.292969 -18.398438 L 1.117188 -19.445312 C 1.183594 -19.613281 1.183594 -19.613281 1.167969 -19.328125 Z M -10.15625 -56.128906 C -10.15625 -56.128906 -10.019531 -56.46875 -9.988281 -57.042969 Z M -10.363281 -53.371094 C -10.3125 -53.253906 -10.3125 -53.253906 -10.378906 -53.082031 C -10.378906 -53.082031 -10.429688 -53.199219 -10.546875 -53.148438 C -10.429688 -53.199219 -10.429688 -53.199219 -10.363281 -53.371094 Z M -10.363281 -53.371094 "/></g></g></g><g fill="#221f1f" fill-opacity="1"><g transform="translate(1164.331785, 135.862202)"><g><path d="M 34.214844 -50.652344 C 33.328125 -48.160156 33.546875 -44.742188 33.167969 -42.050781 C 32.644531 -37.75 32.070312 -33.570312 31.378906 -29.335938 C 30.128906 -21.210938 28.929688 -12.964844 26.59375 -5.070312 C 25.660156 -1.71875 24.019531 6.15625 19.792969 7.425781 C 16.632812 8.238281 14.429688 3.152344 13.453125 0.90625 C 12.632812 -0.984375 11.933594 -2.925781 11.398438 -4.804688 C 11.058594 -5.917969 10.464844 -9.875 9.464844 -10.5625 L 10.054688 -6.609375 C 9.558594 -8.078125 9.128906 -9.71875 8.867188 -11.289062 C 8.648438 -11.472656 8.277344 -15.246094 8.050781 -16.414062 C 7.617188 -19.03125 7.183594 -21.652344 6.867188 -24.324219 C 6.433594 -26.945312 6.050781 -29.449219 5.785156 -32.003906 C 5.453125 -34.386719 5.820312 -35.808594 6.402344 -38.027344 C 8.851562 -46.957031 10.570312 -56.269531 11.9375 -65.429688 C 12.414062 -68.863281 12.449219 -71.691406 13.488281 -74.808594 C 15.109375 -79.164062 15.121094 -84.644531 15.371094 -89.25 C 15.898438 -96.78125 16.460938 -107.136719 12.625 -114.039062 L 12.371094 -114.632812 L 12.199219 -114.699219 C 9.492188 -119 2.878906 -122.59375 -1.605469 -118.683594 C -3.964844 -116.675781 -4.746094 -112.96875 -5.53125 -110.242188 L -6.660156 -105.398438 C -6.941406 -104.429688 -7 -102.300781 -7.183594 -101.097656 L -7.117188 -101.265625 L -8.078125 -93.125 L -8.003906 -95.542969 C -8.648438 -95.40625 -9.042969 -89.195312 -9.140625 -88.449219 C -9.46875 -85.640625 -9.675781 -82.882812 -9.765625 -80.171875 C -10.082031 -74.417969 -10.34375 -68.546875 -9.675781 -62.796875 C -9.125 -56.996094 -8.863281 -51.210938 -8.433594 -45.359375 C -8.199219 -42.230469 -7.914062 -38.984375 -7.5625 -35.90625 C -7.300781 -33.351562 -7.367188 -28.96875 -5.984375 -26.757812 L -5.628906 -26.910156 C -5.625 -25.929688 -5.503906 -25 -5.382812 -24.070312 C -5.570312 -24.832031 -5.929688 -25.660156 -5.914062 -25.945312 C -6.144531 -24.863281 -4.796875 -22.078125 -4.8125 -21.789062 C -3.582031 -14.738281 -2.585938 -7.585938 -0.1875 -0.761719 C 2.171875 5.660156 5.761719 13.933594 12.726562 16.390625 C 20.488281 19.066406 25.382812 12.867188 28.097656 6.496094 C 31.226562 -1.183594 33.121094 -9.445312 34.710938 -17.441406 C 36.152344 -24.804688 36.613281 -32.167969 37.699219 -39.378906 C 38.089844 -42.359375 38.601562 -45.390625 38.183594 -48.300781 C 37.835938 -50.394531 35.703125 -54.667969 34.214844 -50.652344 Z M 1.085938 -86.566406 C 0.988281 -93.265625 0.839844 -100.082031 1.84375 -106.835938 C 2.109375 -108.496094 4.351562 -117.898438 6.832031 -111.527344 L 6.882812 -111.410156 C 9.519531 -104.6875 8.289062 -95.867188 7.910156 -88.960938 L 6.945312 -77.589844 C 6.519531 -74.035156 5.21875 -69.257812 5.605469 -65.773438 C 5.496094 -67.972656 6.445312 -71.613281 6.738281 -73.847656 C 7.230469 -77.574219 7.488281 -81.195312 7.859375 -84.867188 C 8.324219 -91.25 8.921875 -97.96875 8.46875 -104.515625 C 10.019531 -86.367188 6.496094 -67.28125 3.851562 -49.421875 C 2.765625 -61.3125 1.273438 -74.148438 1.085938 -86.566406 Z M -6.285156 -93.199219 C -6.078125 -95.957031 -4.769531 -98.773438 -4.511719 -101.414062 C -4.839844 -95.371094 -5.964844 -89.546875 -6.515625 -83.691406 C -6.566406 -83.808594 -6.667969 -84.042969 -6.601562 -84.214844 C -6.667969 -87.277344 -6.511719 -90.152344 -6.285156 -93.199219 Z M -2.125 -22.390625 C -2.140625 -22.105469 -2.089844 -21.988281 -2.089844 -21.988281 C -2.074219 -18.0625 -0.242188 -13.519531 0.585938 -9.664062 C 0.824219 -8.785156 0.898438 -7.972656 1.253906 -7.144531 L 1.101562 -7.5 L 2.386719 -3.5625 C 0.777344 -7.921875 -0.644531 -12.5 -1.613281 -16.996094 L -1.5625 -16.878906 C -2.386719 -19.75 -2.871094 -22.492188 -2.398438 -22.695312 C -2.210938 -22.917969 -2.058594 -22.5625 -2.125 -22.390625 Z M -2.125 -22.390625 "/></g></g></g><g fill="#221f1f" fill-opacity="1"><g transform="translate(1206.179362, 117.715608)"><g><path d="M 57.359375 -59.140625 L 57.308594 -59.261719 C 54.90625 -62.855469 52.40625 -54.042969 51.953125 -53.144531 C 50.164062 -47.875 48.765625 -42.355469 47.488281 -36.882812 C 46.257812 -31.296875 45.148438 -25.757812 43.804688 -20.117188 C 43.1875 -17.324219 42.523438 -14.648438 41.570312 -11.988281 C 41.289062 -11.023438 40.738281 -8.398438 39.675781 -7.933594 C 35.539062 -6.140625 31.503906 -24.195312 30.847656 -27 C 29.558594 -31.917969 27.246094 -38.21875 28.613281 -43.164062 C 28.910156 -44.417969 32.492188 -58.191406 32.492188 -58.191406 C 32.203125 -58.207031 31.769531 -56.613281 31.488281 -55.648438 L 33.597656 -64.707031 L 33.746094 -65.335938 L 33.863281 -65.386719 L 33.746094 -65.335938 L 34.128906 -67.046875 C 34.296875 -66.976562 34.28125 -66.691406 34.265625 -66.402344 L 34.816406 -68.046875 L 36.148438 -73.398438 C 37.011719 -77.566406 37.652344 -81.914062 38.226562 -86.097656 C 39.058594 -92.917969 40.050781 -102.617188 34.816406 -108.214844 C 30.941406 -112.292969 24.027344 -110.417969 20.371094 -106.867188 C 17.691406 -104.300781 16.050781 -100.636719 14.929688 -97.0625 C 14.414062 -95.015625 13.953125 -92.847656 13.65625 -90.613281 C 13.507812 -89.984375 13.609375 -85.535156 13.460938 -84.910156 L 13.578125 -84.960938 C 13.433594 -83.351562 13.289062 -81.742188 13.378906 -80.238281 C 13.207031 -81.285156 12.976562 -83.433594 13.296875 -83.996094 C 12.65625 -82.875 13.316406 -79.085938 13.234375 -78.628906 C 12.996094 -66.871094 13.402344 -55.25 15.074219 -43.613281 C 10.292969 -45.894531 2.492188 -49.957031 -2.089844 -45.300781 C -5.878906 -41.410156 -7.207031 -35.078125 -7.722656 -29.796875 C -8.210938 -25.089844 -7.109375 -20.933594 -7.058594 -16.601562 C -7.0625 -9.15625 -2.773438 4.292969 7.269531 2.183594 C 10.363281 1.546875 12.191406 -1.355469 13.773438 -3.867188 C 16.511719 -8.5625 18.808594 -13.632812 20.816406 -18.71875 C 22.941406 -12.195312 25.742188 -2.175781 32.980469 0.585938 C 42.011719 4.253906 44.535156 -7.09375 46.269531 -13.460938 C 48.449219 -21.710938 49.257812 -30.207031 51.542969 -38.222656 C 52.675781 -42.082031 53.8125 -45.945312 55.164062 -49.625 C 56.238281 -52.335938 58.996094 -56.339844 57.359375 -59.140625 Z M 17.238281 -32.472656 C 17.273438 -32.070312 17.375 -31.832031 17.375 -31.832031 C 18.132812 -28.789062 19.210938 -26.308594 18.070312 -23.425781 C 17.117188 -20.765625 15.996094 -18.171875 14.875 -15.578125 C 13.816406 -13.15625 11.664062 -6.460938 8.84375 -5.519531 C 5.378906 -4.4375 4.582031 -13.082031 4.234375 -18.410156 C 4.511719 -12.910156 5.007812 -3.996094 9.011719 -5.453125 C 10.125 -5.796875 11.488281 -7.511719 12.464844 -9.476562 C 11.609375 -7.5625 10.011719 -4.761719 8.285156 -4.859375 C 5.054688 -4.859375 4.496094 -12.625 4.148438 -14.722656 C 3.328125 -20.824219 3.320312 -27 3.765625 -33.09375 C 3.992188 -36.140625 4.140625 -40.980469 6.519531 -42.292969 L 6.082031 -41.683594 C 6.148438 -41.851562 6.265625 -41.902344 6.386719 -41.953125 C 7.109375 -42.550781 8.195312 -42.316406 8.992188 -42.101562 C 10.988281 -41.703125 12.804688 -40.101562 14.535156 -39.027344 C 16.539062 -37.648438 16.582031 -35.28125 17.03125 -32.949219 Z M 24.429688 -68.035156 C 24.378906 -68.15625 24.273438 -68.390625 24.34375 -68.558594 L 24.289062 -68.679688 C 24.253906 -69.085938 24.320312 -69.253906 24.320312 -69.253906 L 24.269531 -69.371094 C 23.710938 -78.117188 23.382812 -86.964844 24.667969 -95.667969 C 24.960938 -97.902344 25.675781 -104.671875 29.0625 -104.3125 C 30.382812 -104.183594 31.285156 -102.75 31.746094 -101.6875 C 35.296875 -94.796875 33.261719 -83.945312 32.175781 -76.730469 C 30.90625 -68.316406 29.117188 -59.816406 26.882812 -51.683594 L 28.304688 -55.53125 L 29.390625 -59.511719 L 26.742188 -49.097656 L 26.378906 -47.671875 L 26.109375 -46.996094 C 25.917969 -47.757812 26.203125 -48.722656 26.433594 -49.804688 C 26.300781 -49.464844 26.167969 -49.128906 26.152344 -48.839844 C 25.484375 -54.589844 24.933594 -60.390625 24.503906 -66.242188 C 24.4375 -66.074219 24.453125 -66.359375 24.367188 -66.886719 L 24.464844 -67.628906 C 24.414062 -67.75 24.363281 -67.867188 24.429688 -68.035156 Z M 18.703125 -54.035156 C 18.722656 -53.34375 19.191406 -50.316406 18.992188 -49.808594 C 19.042969 -49.6875 18.976562 -49.519531 18.855469 -49.46875 C 19.289062 -51.0625 18.03125 -52.339844 17.890625 -53.964844 C 17.820312 -54.777344 18.4375 -56.589844 18.265625 -57.636719 C 18.675781 -56.691406 18.800781 -54.78125 18.703125 -54.035156 Z M 14.105469 -13.140625 C 15.933594 -17.019531 17.589844 -20.972656 19.078125 -24.988281 C 19.511719 -23.347656 16.972656 -19.15625 16.183594 -17.410156 C 15.316406 -15.207031 14.207031 -12.902344 13.050781 -10.714844 L 12.933594 -10.664062 Z M 16.164062 -65.714844 C 16.308594 -64.09375 16.28125 -62.535156 16.136719 -60.929688 C 15.957031 -62.957031 15.542969 -64.886719 15.652344 -66.898438 C 15.796875 -68.507812 15.90625 -70.519531 15.832031 -72.3125 C 16.0625 -70.167969 15.988281 -67.746094 16.164062 -65.714844 Z M 24.464844 -67.628906 L 24.503906 -66.242188 C 24.453125 -66.359375 24.46875 -66.648438 24.367188 -66.886719 Z M 5.695312 -40.953125 C 5.378906 -40.394531 5.226562 -39.765625 5.109375 -39.714844 C 5.347656 -39.816406 5.496094 -40.445312 5.695312 -40.953125 Z M 8.902344 -42.625 C 9.191406 -42.609375 9.480469 -42.59375 9.816406 -42.460938 Z M 31.386719 -54.902344 C 31.335938 -55.019531 31.402344 -55.191406 31.472656 -55.359375 C 31.453125 -55.070312 31.386719 -54.902344 31.386719 -54.902344 Z M 31.472656 -55.359375 L 31.488281 -55.648438 C 31.539062 -55.527344 31.472656 -55.359375 31.472656 -55.359375 Z M 31.472656 -55.359375 "/></g></g></g></svg>